<svg xmlns="http://www.w3.org/2000/svg" width="40" height="40" viewBox="0 0 40 40"><path fill="#FFF" fill-rule="evenodd" d="M24.85 8A7.157 7.157 0 0132 15.15v9.7A7.157 7.157 0 0124.85 32h-9.7A7.157 7.157 0 018 24.85v-9.7A7.157 7.157 0 0115.15 8h9.7zm4.736 16.85v-9.7a4.735 4.735 0 00-4.736-4.736h-9.7a4.735 4.735 0 00-4.736 4.736v9.7a4.735 4.735 0 004.736 4.736h9.7a4.735 4.735 0 004.736-4.736zM20 13.793A6.214 6.214 0 0126.207 20 6.214 6.214 0 0120 26.207 6.214 6.214 0 0113.793 20 6.214 6.214 0 0120 13.793zm0 10a3.793 3.793 0 100-7.586 3.793 3.793 0 000 7.586zm6.22-8.466a1.487 1.487 0 110-2.975 1.487 1.487 0 010 2.975z"/></svg>