<svg xmlns="http://www.w3.org/2000/svg" width="40" height="40" viewBox="0 0 40 40"><path fill="#FFF" fill-rule="evenodd" d="M29.5 22.036V29h-4.072v-6.498c0-1.632-.59-2.746-2.063-2.746-1.126 0-1.795.75-2.09 1.477-.107.26-.135.62-.135.984V29h-4.074s.055-11.005 0-12.145h4.074v1.721c-.009.013-.02.027-.027.04h.027v-.04c.54-.826 1.507-2.007 3.67-2.007 2.68 0 4.69 1.736 4.69 5.467zM12.805 11c-1.393 0-2.305.906-2.305 2.098 0 1.166.885 2.1 2.251 2.1h.027c1.42 0 2.304-.934 2.304-2.1C15.056 11.906 14.2 11 12.805 11zm-2.063 18h4.072V16.855h-4.072V29z"/></svg>