<svg xmlns="http://www.w3.org/2000/svg" width="40" height="40" viewBox="0 0 40 40"><path fill="#FFF" fill-rule="evenodd" d="M16.648 28c6.796 0 10.513-5.772 10.513-10.775 0-.165 0-.33-.008-.487A7.677 7.677 0 0029 14.775a7.358 7.358 0 01-2.123.597 3.77 3.77 0 001.625-2.097 7.374 7.374 0 01-2.345.919A3.636 3.636 0 0023.46 13c-2.039 0-3.694 1.696-3.694 3.785 0 .299.03.59.1.864-3.073-.157-5.793-1.665-7.617-3.958a3.872 3.872 0 00-.498 1.9c0 1.312.651 2.474 1.647 3.15a3.563 3.563 0 01-1.67-.471v.047c0 1.837 1.272 3.361 2.965 3.714a3.6 3.6 0 01-1.67.063c.467 1.508 1.831 2.6 3.448 2.631A7.314 7.314 0 0111 26.288 10.116 10.116 0 0016.648 28"/></svg>