<svg xmlns="http://www.w3.org/2000/svg" width="40" height="40" viewBox="0 0 40 40"><path fill="#FFF" fill-rule="evenodd" d="M31.065 13.46c-.867-1.037-2.466-1.46-5.52-1.46h-11.09c-3.124 0-4.75.45-5.614 1.554C8 14.63 8 16.214 8 18.409v4.182C8 26.841 8.998 29 14.456 29h11.088c2.65 0 4.117-.373 5.067-1.288.973-.938 1.389-2.47 1.389-5.121v-4.182c0-2.314-.065-3.909-.935-4.95zm-7.657 7.617l-5.035 2.649a.77.77 0 01-.76-.024.78.78 0 01-.373-.667v-5.28a.78.78 0 01.372-.666.77.77 0 01.76-.025l5.034 2.631a.78.78 0 01.002 1.382z"/></svg>